<svg xmlns="http://www.w3.org/2000/svg" xmlns:xlink="http://www.w3.org/1999/xlink" xmlns:lucid="lucid" width="1940" height="582"><g transform="translate(1300 -479)" lucid:page-tab-id="0_0"><path d="M-1500 0h2500v1500h-2500z" fill="#fff"/><path d="M-1269.55 765.8a7.8 7.8 0 0 1 7.55-5.8h236a4.6 4.6 0 0 1 4.45 5.8l-28.9 108.4a7.8 7.8 0 0 1-7.55 5.8h-236a4.6 4.6 0 0 1-4.45-5.8z" stroke="#000" stroke-width="2" fill="#ff80df"/><use xlink:href="#a" transform="matrix(1,0,0,1,-1295,765) translate(21.340937500000006 45.59027777777778)"/><use xlink:href="#b" transform="matrix(1,0,0,1,-1295,765) translate(111.1087326388889 45.59027777777778)"/><use xlink:href="#c" transform="matrix(1,0,0,1,-1295,765) translate(170.32097222222222 45.59027777777778)"/><use xlink:href="#d" transform="matrix(1,0,0,1,-1295,765) translate(75.03711805555555 77.85590277777777)"/><use xlink:href="#e" transform="matrix(1,0,0,1,-1295,765) translate(152.60873263888888 77.85590277777777)"/><path d="M-1033.96 820H-917" stroke="#000" stroke-width="2" fill="none"/><path d="M-1033.94 820.98h-1.28l.52-1.96h.76z" stroke="#000" stroke-width=".05"/><path d="M-903 820l-13 7.5v-15z" stroke="#000" stroke-width="2"/><path d="M-900 766a6 6 0 0 1 6-6h232.98a6 6 0 0 1 6 6v108a6 6 0 0 1-6 6H-894a6 6 0 0 1-6-6z" stroke="#000" stroke-width="2" fill="#6db1ff"/><use xlink:href="#f" transform="matrix(1,0,0,1,-888,772) translate(-0.07877604166665719 30.51204427083333)"/><use xlink:href="#g" transform="matrix(1,0,0,1,-888,772) translate(59.933268229166664 55.517903645833336)"/><use xlink:href="#h" transform="matrix(1,0,0,1,-888,772) translate(48.18717447916668 80.52376302083334)"/><path d="M-653.52 820h116.14" stroke="#3a414a" fill="none"/><path d="M-653.5 820.48h-.52v-.96h.52z" stroke="#3a414a" stroke-width=".05" fill="#3a414a"/><path d="M-522.62 820l-14.26 4.63v-9.26z" stroke="#3a414a" fill="#3a414a"/><path d="M-520 766a6 6 0 0 1 6-6h198.03a6 6 0 0 1 6 6v108a6 6 0 0 1-6 6H-514a6 6 0 0 1-6-6z" stroke="#000" stroke-width="2" fill="#6db1ff"/><use xlink:href="#i" transform="matrix(1,0,0,1,-508,772) translate(19.319986979166657 29.020833333333336)"/><use xlink:href="#j" transform="matrix(1,0,0,1,-508,772) translate(73.29752604166666 29.020833333333336)"/><use xlink:href="#k" transform="matrix(1,0,0,1,-508,772) translate(119.2626953125 29.020833333333336)"/><use xlink:href="#l" transform="matrix(1,0,0,1,-508,772) translate(23.285807291666657 54.026692708333336)"/><use xlink:href="#m" transform="matrix(1,0,0,1,-508,772) translate(89.30208333333333 54.026692708333336)"/><use xlink:href="#n" transform="matrix(1,0,0,1,-508,772) translate(33.11962890625 79.03255208333334)"/><use xlink:href="#o" transform="matrix(1,0,0,1,-508,772) translate(87.34944661458334 79.03255208333334)"/><path d="M-160 946a6 6 0 0 1 6-6H44.03a6 6 0 0 1 6 6v108a6 6 0 0 1-6 6H-154a6 6 0 0 1-6-6z" stroke="#000" stroke-width="2" fill="#6db1ff"/><use xlink:href="#p" transform="matrix(1,0,0,1,-148,952) translate(39.224772135416664 44.020833333333336)"/><use xlink:href="#q" transform="matrix(1,0,0,1,-148,952) translate(77.45003255208334 44.020833333333336)"/><use xlink:href="#r" transform="matrix(1,0,0,1,-148,952) translate(29.179036458333343 69.02669270833334)"/><path d="M51.53 1000h86.13" stroke="#3a414a" fill="none"/><path d="M51.54 1000.48h-.5v-.96h.5z" stroke="#3a414a" stroke-width=".05" fill="#3a414a"/><path d="M152.43 1000l-14.27 4.63v-9.26z" stroke="#3a414a" fill="#3a414a"/><path d="M155.05 946a6 6 0 0 1 6-6h148a6 6 0 0 1 6 6v108a6 6 0 0 1-6 6h-148a6 6 0 0 1-6-6z" stroke="#000" stroke-width="2" fill="#6db1ff"/><use xlink:href="#p" transform="matrix(1,0,0,1,167.04758151622502,952) translate(13.724772135416664 44.020833333333336)"/><use xlink:href="#q" transform="matrix(1,0,0,1,167.04758151622502,952) translate(51.950032552083336 44.020833333333336)"/><use xlink:href="#s" transform="matrix(1,0,0,1,167.04758151622502,952) translate(6.302734375000007 69.02669270833334)"/><path d="M316.55 1000H458.03" stroke="#3a414a" fill="none"/><path d="M316.56 1000.48h-.5v-.96h.5z" stroke="#3a414a" stroke-width=".05" fill="#3a414a"/><path d="M472.8 1000l-14.26 4.63v-9.26z" stroke="#3a414a" fill="#3a414a"/><path d="M490.45 943.76a7.8 7.8 0 0 1 7.55-5.8h136a4.6 4.6 0 0 1 4.45 5.8l-28.9 108.4a7.8 7.8 0 0 1-7.55 5.8H466a4.6 4.6 0 0 1-4.45-5.8z" stroke="#000" stroke-width="2" fill="#ff80df"/><use xlink:href="#t" transform="matrix(1,0,0,1,465,942.9603529716384) translate(44.731128472222224 31.84027777777778)"/><use xlink:href="#u" transform="matrix(1,0,0,1,465,942.9603529716384) translate(36.110902777777774 64.10590277777777)"/><use xlink:href="#v" transform="matrix(1,0,0,1,465,942.9603529716384) translate(118.58703125 64.10590277777777)"/><use xlink:href="#w" transform="matrix(1,0,0,1,465,942.9603529716384) translate(41.58203993055555 96.37152777777777)"/><path d="M-924.98 492a12 12 0 0 1 12-12h245.96a12 12 0 0 1 12 12v186.76a12 12 0 0 1-12 12h-245.96a12 12 0 0 1-12-12z" stroke="#dfe3e8" stroke-width="2" fill="#fff"/><path d="M-877.9 580.2v-.16a17.65 17.65 0 0 1 17.65-17.66 17.65 17.65 0 0 1 17.65 17.66 17.65 17.65 0 0 1-17.65 17.65 17.65 17.65 0 0 1-17.66-17.66v-.18" stroke="#000" stroke-opacity=".25" fill="#6db1ff"/><path d="M-877.9 627.3v-.2a17.65 17.65 0 0 1 17.65-17.64 17.65 17.65 0 0 1 17.65 17.65 17.65 17.65 0 0 1-17.65 17.67 17.65 17.65 0 0 1-17.66-17.66v-.16" stroke="#000" stroke-opacity=".25" fill="#ff80df"/><use xlink:href="#x" transform="matrix(1,0,0,1,-877.9080185481611,515.3070907098231) translate(0 24.5478515625)"/><use xlink:href="#y" transform="matrix(1,0,0,1,-877.9080185481611,515.3070907098231) translate(77.923828125 24.5478515625)"/><use xlink:href="#z" transform="matrix(1,0,0,1,-824.9473824834265,562.3832116562538) translate(0 23.0927734375)"/><g><use xlink:href="#A" transform="matrix(1,0,0,1,-824.9473824834265,609.4593326026845) translate(0 23.0927734375)"/><use xlink:href="#B" transform="matrix(1,0,0,1,-824.9473824834265,609.4593326026845) translate(34.412109375 23.0927734375)"/></g><path d="M-414.98 758.5V648a6 6 0 0 1 6-6h231.6" stroke="#3a414a" fill="none"/><path d="M-414.5 759h-.96v-.5h.95z" stroke="#3a414a" stroke-width=".05" fill="#3a414a"/><path d="M-162.62 642l-14.26 4.65v-9.27z" stroke="#3a414a" fill="#3a414a"/><path d="M-414.98 881.5V994a6 6 0 0 0 6 6h231.6" stroke="#3a414a" fill="none"/><path d="M-414.5 881.5h-.96v-.5h.95z" stroke="#3a414a" stroke-width=".05" fill="#3a414a"/><path d="M-162.62 1000l-14.26 4.63v-9.26z" stroke="#3a414a" fill="#3a414a"/><path d="M-160 588a6 6 0 0 1 6-6H44.03a6 6 0 0 1 6 6v108a6 6 0 0 1-6 6H-154a6 6 0 0 1-6-6z" stroke="#000" stroke-width="2" fill="#6db1ff"/><g><use xlink:href="#C" transform="matrix(1,0,0,1,-148,594.01171875) translate(27.8369140625 44.020833333333336)"/><use xlink:href="#q" transform="matrix(1,0,0,1,-148,594.01171875) translate(88.837890625 44.020833333333336)"/><use xlink:href="#r" transform="matrix(1,0,0,1,-148,594.01171875) translate(29.179036458333343 69.02669270833334)"/></g><path d="M51.53 642h61.12" stroke="#3a414a" fill="none"/><path d="M51.54 642.5h-.5v-.96h.5z" stroke="#3a414a" stroke-width=".05" fill="#3a414a"/><path d="M127.4 642l-14.25 4.65v-9.27z" stroke="#3a414a" fill="#3a414a"/><path d="M130.03 588a6 6 0 0 1 6-6h198.03a6 6 0 0 1 6 6v108a6 6 0 0 1-6 6H136.03a6 6 0 0 1-6-6z" stroke="#000" stroke-width="2" fill="#6db1ff"/><g><use xlink:href="#C" transform="matrix(1,0,0,1,142.03172101081668,594.01171875) translate(27.8369140625 44.020833333333336)"/><use xlink:href="#q" transform="matrix(1,0,0,1,142.03172101081668,594.01171875) translate(88.837890625 44.020833333333336)"/><use xlink:href="#s" transform="matrix(1,0,0,1,142.03172101081668,594.01171875) translate(31.802734375000007 69.02669270833334)"/></g><path d="M490.45 585.77a7.8 7.8 0 0 1 7.55-5.8h136a4.6 4.6 0 0 1 4.45 5.8l-28.9 108.4a7.8 7.8 0 0 1-7.55 5.8H466a4.6 4.6 0 0 1-4.45-5.8z" stroke="#000" stroke-width="2" fill="#ff80df"/><g><use xlink:href="#t" transform="matrix(1,0,0,1,465,584.9718664577522) translate(44.731128472222224 31.84027777777778)"/><use xlink:href="#u" transform="matrix(1,0,0,1,465,584.9718664577522) translate(36.110902777777774 64.10590277777777)"/><use xlink:href="#v" transform="matrix(1,0,0,1,465,584.9718664577522) translate(118.58703125 64.10590277777777)"/><use xlink:href="#w" transform="matrix(1,0,0,1,465,584.9718664577522) translate(41.58203993055555 96.37152777777777)"/></g><path d="M341.56 642h116.48" stroke="#3a414a" fill="none"/><path d="M341.58 642.5h-.52v-.96h.52z" stroke="#3a414a" stroke-width=".05" fill="#3a414a"/><path d="M472.8 642l-14.26 4.65v-9.27z" stroke="#3a414a" fill="#3a414a"/><defs><path d="M180 0v-1490h270l367 940c28 72 75 218 110 339 35-117 81-264 110-339l362-940h271V0h-187c2-448-5-837 7-1287-157 497-311 829-483 1287H842C666-458 514-784 354-1284c12 438 5 843 7 1284H180" id="D"/><path d="M537 14c-226 0-379-139-379-422v-710h180v695c0 172 97 275 253 275 160 0 281-109 281-300v-670h181V0H879v-209C806-46 684 14 537 14" id="E"/><path d="M338-1490V0H158v-1490h180" id="F"/><path d="M598-1118v154H368v674c0 100 37 144 132 144 23 0 62-6 92-12L629-6c-37 13-88 20-134 20-193 0-307-107-307-290v-688H20v-154h168v-266h180v266h230" id="G"/><path d="M158 0v-1118h180V0H158zm91-1301c-68 0-125-53-125-119s57-119 125-119c69 0 126 53 126 119s-57 119-126 119" id="H"/><path d="M158 418v-1536h174v179h20c37-59 106-193 324-193 279 0 474 222 474 576 0 356-194 580-473 580-213 0-288-135-325-197h-14v591H158zm492-555c209 0 317-186 317-421 0-232-105-413-317-413-206 0-314 166-314 413 0 249 111 421 314 421" id="I"/><path d="M628 24c-324 0-524-230-524-574 0-343 198-582 503-582 237 0 487 146 487 559v75H286c9 234 145 362 343 362 132 0 231-58 273-172l174 48C1024-91 857 24 628 24zM287-650h624c-17-190-120-322-304-322-192 0-309 151-320 322" id="J"/><g id="a"><use transform="matrix(0.010850694444444444,0,0,0.010850694444444444,0,0)" xlink:href="#D"/><use transform="matrix(0.010850694444444444,0,0,0.010850694444444444,20.07378472222222,0)" xlink:href="#E"/><use transform="matrix(0.010850694444444444,0,0,0.010850694444444444,33.21397569444444,0)" xlink:href="#F"/><use transform="matrix(0.010850694444444444,0,0,0.010850694444444444,38.92144097222222,0)" xlink:href="#G"/><use transform="matrix(0.010850694444444444,0,0,0.010850694444444444,46.19140625,0)" xlink:href="#H"/><use transform="matrix(0.010850694444444444,0,0,0.010850694444444444,51.57335069444444,0)" xlink:href="#I"/><use transform="matrix(0.010850694444444444,0,0,0.010850694444444444,65.18012152777777,0)" xlink:href="#F"/><use transform="matrix(0.010850694444444444,0,0,0.010850694444444444,70.56206597222221,0)" xlink:href="#J"/></g><path d="M677 24c-213 0-288-135-325-197h-20V0H158v-1490h180v551h14c37-59 106-193 324-193 279 0 474 222 474 576 0 356-194 580-473 580zm-27-161c209 0 317-186 317-421 0-232-105-413-317-413-206 0-314 166-314 413 0 249 111 421 314 421" id="K"/><path d="M158 0v-1118h174v172h12c41-113 157-188 290-188 26 0 70 2 91 3v181c-11-2-60-10-108-10-161 0-279 109-279 260V0H158" id="L"/><path d="M471 26C259 26 90-98 90-318c0-256 228-303 435-329 202-27 287-16 287-108 0-139-79-219-234-219-161 0-248 86-283 164l-173-57c86-203 278-265 451-265 150 0 419 46 419 395V0H815v-152h-12C765-73 660 26 471 26zm31-159c199 0 310-134 310-271v-155c-30 35-226 55-295 64-131 17-246 59-246 186 0 116 97 176 231 176" id="M"/><path d="M338-670V0H158v-1118h173l1 207c72-158 192-221 342-221 226 0 378 139 378 422V0H872v-695c0-172-96-275-252-275-161 0-282 109-282 300" id="N"/><g id="b"><use transform="matrix(0.010850694444444444,0,0,0.010850694444444444,0,0)" xlink:href="#K"/><use transform="matrix(0.010850694444444444,0,0,0.010850694444444444,13.606770833333332,0)" xlink:href="#L"/><use transform="matrix(0.010850694444444444,0,0,0.010850694444444444,21.97265625,0)" xlink:href="#M"/><use transform="matrix(0.010850694444444444,0,0,0.010850694444444444,34.450954861111114,0)" xlink:href="#H"/><use transform="matrix(0.010850694444444444,0,0,0.010850694444444444,39.83289930555556,0)" xlink:href="#N"/></g><path d="M538 24C308 24 148-78 108-271l171-41c32 123 123 178 257 178 156 0 256-77 256-169 0-77-54-128-164-154l-186-44c-203-48-300-148-300-305 0-192 176-326 414-326 230 0 351 112 402 269l-163 42c-31-80-94-158-238-158-133 0-233 69-233 162 0 83 57 129 188 160l169 40c203 48 298 149 298 302 0 196-179 339-441 339" id="O"/><path d="M158 0v-1118h175l1 205c55-151 181-225 313-225 147 0 245 90 285 228 53-141 190-228 352-228 194 0 352 125 352 384V0h-181v-749c0-161-105-225-225-225-151 0-243 103-243 244V0H807v-767c0-124-93-207-219-207-131 0-250 92-250 270V0H158" id="P"/><g id="c"><use transform="matrix(0.010850694444444444,0,0,0.010850694444444444,0,0)" xlink:href="#O"/><use transform="matrix(0.010850694444444444,0,0,0.010850694444444444,11.729600694444445,0)" xlink:href="#M"/><use transform="matrix(0.010850694444444444,0,0,0.010850694444444444,24.207899305555554,0)" xlink:href="#P"/><use transform="matrix(0.010850694444444444,0,0,0.010850694444444444,43.674045138888886,0)" xlink:href="#I"/><use transform="matrix(0.010850694444444444,0,0,0.010850694444444444,57.28081597222221,0)" xlink:href="#F"/><use transform="matrix(0.010850694444444444,0,0,0.010850694444444444,62.66276041666666,0)" xlink:href="#J"/><use transform="matrix(0.010850694444444444,0,0,0.010850694444444444,75.61848958333333,0)" xlink:href="#O"/></g><path d="M218-607c0-325 108-727 258-974h175c-155 315-250 682-250 974 0 265 78 531 250 886H476C306-10 218-315 218-607" id="Q"/><path d="M338-670V0H158v-1490h180v566c73-149 190-208 336-208 226 0 379 139 379 422V0H872v-695c0-172-96-275-252-275-161 0-282 109-282 300" id="R"/><path d="M128 359l88-567h206L266 359H128" id="S"/><g id="d"><use transform="matrix(0.010850694444444444,0,0,0.010850694444444444,0,0)" xlink:href="#Q"/><use transform="matrix(0.010850694444444444,0,0,0.010850694444444444,8.10546875,0)" xlink:href="#O"/><use transform="matrix(0.010850694444444444,0,0,0.010850694444444444,19.835069444444443,0)" xlink:href="#R"/><use transform="matrix(0.010850694444444444,0,0,0.010850694444444444,32.975260416666664,0)" xlink:href="#M"/><use transform="matrix(0.010850694444444444,0,0,0.010850694444444444,45.45355902777778,0)" xlink:href="#P"/><use transform="matrix(0.010850694444444444,0,0,0.010850694444444444,64.9197048611111,0)" xlink:href="#S"/></g><path d="M96 279C273-86 346-350 346-607c0-292-95-659-250-974h175c150 246 258 650 258 974 0 297-91 602-258 886H96" id="T"/><g id="e"><use transform="matrix(0.010850694444444444,0,0,0.010850694444444444,0,0)" xlink:href="#G"/><use transform="matrix(0.010850694444444444,0,0,0.010850694444444444,7.269965277777778,0)" xlink:href="#K"/><use transform="matrix(0.010850694444444444,0,0,0.010850694444444444,20.87673611111111,0)" xlink:href="#H"/><use transform="matrix(0.010850694444444444,0,0,0.010850694444444444,26.25868055555556,0)" xlink:href="#T"/></g><path d="M611 442c-248 0-391-105-460-228l146-94c47 65 117 165 314 165 178 0 307-82 307-266v-224h-17C863-141 792-18 576-18c-268 0-472-195-472-546 0-346 197-568 476-568 216 0 288 133 326 193h17v-179h175V29c0 289-215 413-487 413zm-5-620c203 0 314-146 314-390 0-237-108-403-314-403-213 0-319 180-319 403 0 230 109 390 319 390" id="U"/><path d="M798-719v166H144v-166h654" id="V"/><g id="f"><use transform="matrix(0.010091145833333334,0,0,0.010091145833333334,0,0)" xlink:href="#P"/><use transform="matrix(0.010091145833333334,0,0,0.010091145833333334,18.103515625,0)" xlink:href="#E"/><use transform="matrix(0.010091145833333334,0,0,0.010091145833333334,30.323893229166668,0)" xlink:href="#F"/><use transform="matrix(0.010091145833333334,0,0,0.010091145833333334,35.6318359375,0)" xlink:href="#G"/><use transform="matrix(0.010091145833333334,0,0,0.010091145833333334,42.392903645833336,0)" xlink:href="#H"/><use transform="matrix(0.010091145833333334,0,0,0.010091145833333334,47.39811197916667,0)" xlink:href="#O"/><use transform="matrix(0.010091145833333334,0,0,0.010091145833333334,58.306640625,0)" xlink:href="#M"/><use transform="matrix(0.010091145833333334,0,0,0.010091145833333334,69.91145833333334,0)" xlink:href="#P"/><use transform="matrix(0.010091145833333334,0,0,0.010091145833333334,88.01497395833334,0)" xlink:href="#I"/><use transform="matrix(0.010091145833333334,0,0,0.010091145833333334,100.66927083333334,0)" xlink:href="#F"/><use transform="matrix(0.010091145833333334,0,0,0.010091145833333334,105.67447916666667,0)" xlink:href="#H"/><use transform="matrix(0.010091145833333334,0,0,0.010091145833333334,110.6796875,0)" xlink:href="#N"/><use transform="matrix(0.010091145833333334,0,0,0.010091145833333334,122.88997395833333,0)" xlink:href="#U"/><use transform="matrix(0.010091145833333334,0,0,0.010091145833333334,135.564453125,0)" xlink:href="#V"/><use transform="matrix(0.010091145833333334,0,0,0.010091145833333334,145.0703125,0)" xlink:href="#I"/><use transform="matrix(0.010091145833333334,0,0,0.010091145833333334,157.724609375,0)" xlink:href="#L"/><use transform="matrix(0.010091145833333334,0,0,0.010091145833333334,165.16178385416666,0)" xlink:href="#J"/><use transform="matrix(0.010091145833333334,0,0,0.010091145833333334,177.21061197916663,0)" xlink:href="#I"/><use transform="matrix(0.010091145833333334,0,0,0.010091145833333334,190.06673177083331,0)" xlink:href="#M"/><use transform="matrix(0.010091145833333334,0,0,0.010091145833333334,201.67154947916663,0)" xlink:href="#L"/><use transform="matrix(0.010091145833333334,0,0,0.010091145833333334,209.10872395833331,0)" xlink:href="#J"/></g><path d="M613 24c-304 0-509-231-509-576 0-350 205-580 509-580 216 0 392 114 453 309l-173 49c-33-115-133-197-280-197-223 0-326 196-326 419 0 220 103 415 326 415 150 0 252-85 285-206l172 49C1010-95 832 24 613 24" id="W"/><g id="g"><use transform="matrix(0.010091145833333334,0,0,0.010091145833333334,0,0)" xlink:href="#Q"/><use transform="matrix(0.010091145833333334,0,0,0.010091145833333334,7.5380859375,0)" xlink:href="#G"/><use transform="matrix(0.010091145833333334,0,0,0.010091145833333334,14.299153645833334,0)" xlink:href="#L"/><use transform="matrix(0.010091145833333334,0,0,0.010091145833333334,22.079427083333336,0)" xlink:href="#M"/><use transform="matrix(0.010091145833333334,0,0,0.010091145833333334,33.68424479166667,0)" xlink:href="#N"/><use transform="matrix(0.010091145833333334,0,0,0.010091145833333334,45.89453125,0)" xlink:href="#O"/><use transform="matrix(0.010091145833333334,0,0,0.010091145833333334,56.80305989583334,0)" xlink:href="#W"/><use transform="matrix(0.010091145833333334,0,0,0.010091145833333334,68.60970052083334,0)" xlink:href="#L"/><use transform="matrix(0.010091145833333334,0,0,0.010091145833333334,76.71289062500001,0)" xlink:href="#H"/><use transform="matrix(0.010091145833333334,0,0,0.010091145833333334,81.71809895833334,0)" xlink:href="#I"/><use transform="matrix(0.010091145833333334,0,0,0.010091145833333334,94.37239583333334,0)" xlink:href="#G"/></g><path d="M613 24c-304 0-509-231-509-576 0-350 205-580 509-580 305 0 511 230 511 580 0 345-206 576-511 576zm0-161c226 0 329-195 329-415 0-222-103-419-329-419-223 0-326 196-326 419 0 220 103 415 326 415" id="X"/><g id="h"><use transform="matrix(0.010091145833333334,0,0,0.010091145833333334,0,0)" xlink:href="#M"/><use transform="matrix(0.010091145833333334,0,0,0.010091145833333334,11.604817708333334,0)" xlink:href="#U"/><use transform="matrix(0.010091145833333334,0,0,0.010091145833333334,24.279296875,0)" xlink:href="#U"/><use transform="matrix(0.010091145833333334,0,0,0.010091145833333334,36.95377604166667,0)" xlink:href="#L"/><use transform="matrix(0.010091145833333334,0,0,0.010091145833333334,44.390950520833336,0)" xlink:href="#J"/><use transform="matrix(0.010091145833333334,0,0,0.010091145833333334,56.439778645833336,0)" xlink:href="#U"/><use transform="matrix(0.010091145833333334,0,0,0.010091145833333334,69.1142578125,0)" xlink:href="#M"/><use transform="matrix(0.010091145833333334,0,0,0.010091145833333334,80.71907552083333,0)" xlink:href="#G"/><use transform="matrix(0.010091145833333334,0,0,0.010091145833333334,87.48014322916666,0)" xlink:href="#H"/><use transform="matrix(0.010091145833333334,0,0,0.010091145833333334,92.48535156249999,0)" xlink:href="#X"/><use transform="matrix(0.010091145833333334,0,0,0.010091145833333334,104.87727864583331,0)" xlink:href="#N"/><use transform="matrix(0.010091145833333334,0,0,0.010091145833333334,117.08756510416664,0)" xlink:href="#T"/></g><path d="M545 20c-263 0-445-160-445-446v-80h190v80c0 182 102 279 255 279 152 0 254-97 254-279v-1064h190v1064c0 286-181 446-444 446" id="Y"/><g id="i"><use transform="matrix(0.010091145833333334,0,0,0.010091145833333334,0,0)" xlink:href="#Y"/><use transform="matrix(0.010091145833333334,0,0,0.010091145833333334,11.796549479166668,0)" xlink:href="#X"/><use transform="matrix(0.010091145833333334,0,0,0.010091145833333334,24.1884765625,0)" xlink:href="#H"/><use transform="matrix(0.010091145833333334,0,0,0.010091145833333334,29.193684895833336,0)" xlink:href="#N"/><use transform="matrix(0.010091145833333334,0,0,0.010091145833333334,41.40397135416667,0)" xlink:href="#G"/></g><path d="M180 0v-1490h190v1322h690V0H180" id="Z"/><path d="M645 0H180v-1490h484c435 0 692 280 692 742 0 466-257 748-711 748zM370-168h263c363 0 539-218 539-580 0-358-176-574-521-574H370v1154" id="aa"/><path d="M52 0l541-1490h220L1361 0h-200l-149-416H398L254 0H52zm404-582h497c-103-290-145-390-251-756-108 377-145 460-246 756" id="ab"/><g id="j"><use transform="matrix(0.010091145833333334,0,0,0.010091145833333334,0,0)" xlink:href="#Z"/><use transform="matrix(0.010091145833333334,0,0,0.010091145833333334,11.685546875,0)" xlink:href="#aa"/><use transform="matrix(0.010091145833333334,0,0,0.010091145833333334,25.893880208333336,0)" xlink:href="#ab"/></g><g id="k"><use transform="matrix(0.010091145833333334,0,0,0.010091145833333334,0,0)" xlink:href="#G"/><use transform="matrix(0.010091145833333334,0,0,0.010091145833333334,6.559244791666667,0)" xlink:href="#X"/><use transform="matrix(0.010091145833333334,0,0,0.010091145833333334,18.951171875,0)" xlink:href="#I"/><use transform="matrix(0.010091145833333334,0,0,0.010091145833333334,31.605468750000004,0)" xlink:href="#H"/><use transform="matrix(0.010091145833333334,0,0,0.010091145833333334,36.610677083333336,0)" xlink:href="#W"/></g><path d="M577 24c-279 0-473-224-473-580 0-354 195-576 474-576 218 0 287 134 324 193h14v-551h180V0H922v-173h-20C865-111 790 24 577 24zm27-161c203 0 314-172 314-421 0-247-108-413-314-413-212 0-317 181-317 413 0 235 108 421 317 421" id="ac"/><g id="l"><use transform="matrix(0.010091145833333334,0,0,0.010091145833333334,0,0)" xlink:href="#P"/><use transform="matrix(0.010091145833333334,0,0,0.010091145833333334,18.103515625,0)" xlink:href="#X"/><use transform="matrix(0.010091145833333334,0,0,0.010091145833333334,30.495442708333336,0)" xlink:href="#ac"/><use transform="matrix(0.010091145833333334,0,0,0.010091145833333334,43.149739583333336,0)" xlink:href="#J"/><use transform="matrix(0.010091145833333334,0,0,0.010091145833333334,55.198567708333336,0)" xlink:href="#F"/></g><g id="m"><use transform="matrix(0.010091145833333334,0,0,0.010091145833333334,0,0)" xlink:href="#Q"/><use transform="matrix(0.010091145833333334,0,0,0.010091145833333334,7.5380859375,0)" xlink:href="#O"/><use transform="matrix(0.010091145833333334,0,0,0.010091145833333334,18.446614583333336,0)" xlink:href="#R"/><use transform="matrix(0.010091145833333334,0,0,0.010091145833333334,30.6669921875,0)" xlink:href="#M"/><use transform="matrix(0.010091145833333334,0,0,0.010091145833333334,42.271809895833336,0)" xlink:href="#L"/><use transform="matrix(0.010091145833333334,0,0,0.010091145833333334,49.708984375,0)" xlink:href="#J"/><use transform="matrix(0.010091145833333334,0,0,0.010091145833333334,61.7578125,0)" xlink:href="#ac"/></g><g id="n"><use transform="matrix(0.010091145833333334,0,0,0.010091145833333334,0,0)" xlink:href="#G"/><use transform="matrix(0.010091145833333334,0,0,0.010091145833333334,6.559244791666667,0)" xlink:href="#X"/><use transform="matrix(0.010091145833333334,0,0,0.010091145833333334,18.951171875,0)" xlink:href="#I"/><use transform="matrix(0.010091145833333334,0,0,0.010091145833333334,31.605468750000004,0)" xlink:href="#H"/><use transform="matrix(0.010091145833333334,0,0,0.010091145833333334,36.610677083333336,0)" xlink:href="#W"/></g><g id="o"><use transform="matrix(0.010091145833333334,0,0,0.010091145833333334,0,0)" xlink:href="#O"/><use transform="matrix(0.010091145833333334,0,0,0.010091145833333334,10.908528645833334,0)" xlink:href="#I"/><use transform="matrix(0.010091145833333334,0,0,0.010091145833333334,23.7646484375,0)" xlink:href="#M"/><use transform="matrix(0.010091145833333334,0,0,0.010091145833333334,35.369466145833336,0)" xlink:href="#W"/><use transform="matrix(0.010091145833333334,0,0,0.010091145833333334,47.176106770833336,0)" xlink:href="#J"/><use transform="matrix(0.010091145833333334,0,0,0.010091145833333334,58.99283854166667,0)" xlink:href="#T"/></g><path d="M98-1322v-168h1126v168H757V0H567v-1322H98" id="ad"/><path d="M180 0v-1490h528c311 0 458 177 458 395 0 191-114 278-244 313v14c139 9 302 137 302 371 0 225-148 397-499 397H180zm190-168h350c232 0 321-102 321-231 0-149-120-277-311-277H370v508zm0-668h328c160 0 286-101 286-255 0-129-87-231-280-231H370v486" id="ae"/><path d="M370-1490V0H180v-1490h190" id="af"/><g id="p"><use transform="matrix(0.010091145833333334,0,0,0.010091145833333334,0,0)" xlink:href="#ad"/><use transform="matrix(0.010091145833333334,0,0,0.010091145833333334,13.340494791666668,0)" xlink:href="#ae"/><use transform="matrix(0.010091145833333334,0,0,0.010091145833333334,26.862630208333336,0)" xlink:href="#af"/></g><g id="q"><use transform="matrix(0.010091145833333334,0,0,0.010091145833333334,0,0)" xlink:href="#O"/><use transform="matrix(0.010091145833333334,0,0,0.010091145833333334,10.908528645833334,0)" xlink:href="#M"/><use transform="matrix(0.010091145833333334,0,0,0.010091145833333334,22.513346354166668,0)" xlink:href="#P"/><use transform="matrix(0.010091145833333334,0,0,0.010091145833333334,40.61686197916667,0)" xlink:href="#I"/><use transform="matrix(0.010091145833333334,0,0,0.010091145833333334,53.27115885416667,0)" xlink:href="#F"/><use transform="matrix(0.010091145833333334,0,0,0.010091145833333334,58.2763671875,0)" xlink:href="#J"/></g><path d="M65 0l393-574-370-544h210c88 136 192 297 267 435 67-142 176-302 264-435h206L661-564 1053 0H844c-94-144-206-310-287-458C484-308 366-142 273 0H65" id="ag"/><g id="r"><use transform="matrix(0.010091145833333334,0,0,0.010091145833333334,0,0)" xlink:href="#I"/><use transform="matrix(0.010091145833333334,0,0,0.010091145833333334,12.654296875,0)" xlink:href="#H"/><use transform="matrix(0.010091145833333334,0,0,0.010091145833333334,17.659505208333336,0)" xlink:href="#ag"/><use transform="matrix(0.010091145833333334,0,0,0.010091145833333334,28.47721354166667,0)" xlink:href="#J"/><use transform="matrix(0.010091145833333334,0,0,0.010091145833333334,40.52604166666667,0)" xlink:href="#F"/><use transform="matrix(0.010091145833333334,0,0,0.010091145833333334,45.53125,0)" xlink:href="#V"/><use transform="matrix(0.010091145833333334,0,0,0.010091145833333334,55.037109375,0)" xlink:href="#ac"/><use transform="matrix(0.010091145833333334,0,0,0.010091145833333334,67.69140625,0)" xlink:href="#J"/><use transform="matrix(0.010091145833333334,0,0,0.010091145833333334,79.740234375,0)" xlink:href="#W"/><use transform="matrix(0.010091145833333334,0,0,0.010091145833333334,91.546875,0)" xlink:href="#X"/><use transform="matrix(0.010091145833333334,0,0,0.010091145833333334,103.93880208333331,0)" xlink:href="#ac"/><use transform="matrix(0.010091145833333334,0,0,0.010091145833333334,116.59309895833333,0)" xlink:href="#J"/></g><path d="M600 0L52-1490h200c166 485 304 806 458 1336 156-533 285-846 449-1336h202L819 0H600" id="ah"/><path d="M126 0v-134l627-806v-11H146v-167h839v143L376-178v11h629V0H126" id="ai"/><g id="s"><use transform="matrix(0.010091145833333334,0,0,0.010091145833333334,0,0)" xlink:href="#ah"/><use transform="matrix(0.010091145833333334,0,0,0.010091145833333334,14.2587890625,0)" xlink:href="#H"/><use transform="matrix(0.010091145833333334,0,0,0.010091145833333334,19.263997395833336,0)" xlink:href="#O"/><use transform="matrix(0.010091145833333334,0,0,0.010091145833333334,30.17252604166667,0)" xlink:href="#E"/><use transform="matrix(0.010091145833333334,0,0,0.010091145833333334,42.39290364583334,0)" xlink:href="#M"/><use transform="matrix(0.010091145833333334,0,0,0.010091145833333334,53.99772135416668,0)" xlink:href="#F"/><use transform="matrix(0.010091145833333334,0,0,0.010091145833333334,59.002929687500014,0)" xlink:href="#H"/><use transform="matrix(0.010091145833333334,0,0,0.010091145833333334,64.00813802083334,0)" xlink:href="#ai"/><use transform="matrix(0.010091145833333334,0,0,0.010091145833333334,75.42122395833334,0)" xlink:href="#M"/><use transform="matrix(0.010091145833333334,0,0,0.010091145833333334,87.02604166666667,0)" xlink:href="#G"/><use transform="matrix(0.010091145833333334,0,0,0.010091145833333334,93.787109375,0)" xlink:href="#H"/><use transform="matrix(0.010091145833333334,0,0,0.010091145833333334,98.79231770833331,0)" xlink:href="#X"/><use transform="matrix(0.010091145833333334,0,0,0.010091145833333334,111.18424479166666,0)" xlink:href="#N"/></g><path d="M180 0v-1490h190v644h782v-644h190V0h-190v-678H370V0H180" id="aj"/><path d="M180 0v-1490h510c348 0 508 194 508 460 0 198-88 351-276 417L1256 0h-220L726-579c-117 2-238 0-356 1V0H180zm190-747h312c235 0 327-108 327-283 0-177-92-293-329-293H370v576" id="ak"/><g id="t"><use transform="matrix(0.010850694444444444,0,0,0.010850694444444444,0,0)" xlink:href="#aj"/><use transform="matrix(0.010850694444444444,0,0,0.010850694444444444,16.514756944444443,0)" xlink:href="#H"/><use transform="matrix(0.010850694444444444,0,0,0.010850694444444444,21.896701388888886,0)" xlink:href="#U"/><use transform="matrix(0.010850694444444444,0,0,0.010850694444444444,35.52517361111111,0)" xlink:href="#R"/><use transform="matrix(0.010850694444444444,0,0,0.010850694444444444,48.66536458333333,0)" xlink:href="#V"/><use transform="matrix(0.010850694444444444,0,0,0.010850694444444444,58.886718749999986,0)" xlink:href="#ak"/><use transform="matrix(0.010850694444444444,0,0,0.010850694444444444,72.86241319444443,0)" xlink:href="#J"/><use transform="matrix(0.010850694444444444,0,0,0.010850694444444444,85.8181423611111,0)" xlink:href="#O"/></g><g id="u"><use transform="matrix(0.010850694444444444,0,0,0.010850694444444444,0,0)" xlink:href="#af"/><use transform="matrix(0.010850694444444444,0,0,0.010850694444444444,5.967881944444445,0)" xlink:href="#P"/><use transform="matrix(0.010850694444444444,0,0,0.010850694444444444,25.43402777777778,0)" xlink:href="#M"/><use transform="matrix(0.010850694444444444,0,0,0.010850694444444444,37.912326388888886,0)" xlink:href="#U"/><use transform="matrix(0.010850694444444444,0,0,0.010850694444444444,51.54079861111111,0)" xlink:href="#J"/><use transform="matrix(0.010850694444444444,0,0,0.010850694444444444,64.49652777777777,0)" xlink:href="#O"/></g><path d="M580 20c-295 0-476-179-476-409 0-189 123-290 294-416-104-125-173-226-173-362 0-197 144-337 365-337 224 0 362 144 362 321 0 185-174 312-306 405l319 387c38-75 61-165 61-267h173c0 208-62 332-120 406L1287 0h-217L967-124C868-27 716 20 580 20zm279-273L507-675l-51 38c-123 91-167 162-167 254 0 147 113 246 278 246 107 0 210-41 292-116zM538-908l97-72c54-40 136-101 136-206 0-95-68-163-176-163-113 0-189 74-189 181 0 90 53 164 132 260" id="al"/><use transform="matrix(0.010850694444444444,0,0,0.010850694444444444,0,0)" xlink:href="#al" id="v"/><g id="w"><use transform="matrix(0.010850694444444444,0,0,0.010850694444444444,0,0)" xlink:href="#ak"/><use transform="matrix(0.010850694444444444,0,0,0.010850694444444444,13.975694444444445,0)" xlink:href="#J"/><use transform="matrix(0.010850694444444444,0,0,0.010850694444444444,26.931423611111104,0)" xlink:href="#I"/><use transform="matrix(0.010850694444444444,0,0,0.010850694444444444,40.53819444444444,0)" xlink:href="#X"/><use transform="matrix(0.010850694444444444,0,0,0.010850694444444444,53.86284722222222,0)" xlink:href="#L"/><use transform="matrix(0.010850694444444444,0,0,0.010850694444444444,62.57595486111111,0)" xlink:href="#G"/></g><path d="M659 0H135v-1490h529c448 0 721 280 721 744 0 466-273 746-726 746zM440-263h204c287 0 437-148 437-483 0-333-150-481-435-481H440v964" id="am"/><path d="M128 0v-1118h300V0H128zm150-1264c-91 0-165-68-165-154 0-85 74-154 165-154 90 0 165 69 165 154 0 86-75 154-165 154" id="an"/><path d="M440 22C227 22 68-92 68-313c0-250 202-322 422-343 195-21 271-24 271-105 0-95-63-149-175-149-116 0-187 57-211 129l-275-46c57-194 237-305 487-305 240 0 474 108 474 379V0H777v-155h-10C713-51 605 22 440 22zm85-211c140 0 238-93 238-211v-121c-37 26-156 42-222 51-111 16-185 59-185 149 0 87 70 132 169 132" id="ao"/><path d="M625 442c-280 0-454-114-503-274l258-72c28 63 97 128 243 128 153 0 246-69 246-216v-206h-23C805-108 717-16 536-16 284-16 81-191 81-561c0-378 208-571 456-571 188 0 280 113 321 202h13v-188h295V-9c0 303-226 451-541 451zm5-686c153 0 240-119 240-319 0-198-86-329-240-329-158 0-241 137-241 329 0 195 85 319 241 319" id="ap"/><path d="M128 0v-1118h290v195h12c54-169 184-238 367-200v268c-27-8-86-15-130-15-138 0-239 95-239 234V0H128" id="aq"/><path d="M128 0v-1118h278l12 217c60-163 185-234 319-234 143 0 236 81 288 251 63-172 205-251 359-251 205 0 357 138 357 381V0h-301v-697c0-126-76-187-177-187-114 0-184 79-184 196V0H789v-705c0-109-72-179-174-179-106 0-187 74-187 208V0H128" id="ar"/><g id="x"><use transform="matrix(0.0087890625,0,0,0.0087890625,0,0)" xlink:href="#am"/><use transform="matrix(0.0087890625,0,0,0.0087890625,12.9990234375,0)" xlink:href="#an"/><use transform="matrix(0.0087890625,0,0,0.0087890625,17.876953125,0)" xlink:href="#ao"/><use transform="matrix(0.0087890625,0,0,0.0087890625,28.3271484375,0)" xlink:href="#ap"/><use transform="matrix(0.0087890625,0,0,0.0087890625,39.7001953125,0)" xlink:href="#aq"/><use transform="matrix(0.0087890625,0,0,0.0087890625,46.7841796875,0)" xlink:href="#ao"/><use transform="matrix(0.0087890625,0,0,0.0087890625,57.234375,0)" xlink:href="#ar"/></g><path d="M128 0v-1490h300v802h17l366-430h347L740-633 1179 0H826L514-456l-86 97V0H128" id="as"/><path d="M633 22C291 22 81-200 81-553c0-345 210-579 537-579 292 0 525 185 525 567v84H378c7 183 109 277 260 277 105 0 184-46 216-132l272 51C1071-99 893 22 633 22zM380-669h474c-15-146-94-237-233-237-143 0-229 99-241 237" id="at"/><path d="M120 396l69-226c123 42 245 23 254-107l8-60L31-1118h319c87 288 199 559 259 872 72-308 185-583 277-872h315L726 132c-68 181-186 294-410 294-79 0-153-13-196-30" id="au"/><g id="y"><use transform="matrix(0.0087890625,0,0,0.0087890625,0,0)" xlink:href="#as"/><use transform="matrix(0.0087890625,0,0,0.0087890625,10.037109375,0)" xlink:href="#at"/><use transform="matrix(0.0087890625,0,0,0.0087890625,20.4345703125,0)" xlink:href="#au"/></g><path d="M180 0v-1490h510c348 0 508 209 508 474 0 266-160 477-507 477H370V0H180zm190-706h312c236 0 327-133 327-310 0-176-91-307-329-307H370v617" id="av"/><g id="z"><use transform="matrix(0.0068359375,0,0,0.0068359375,0,0)" xlink:href="#av"/><use transform="matrix(0.0068359375,0,0,0.0068359375,8.94140625,0)" xlink:href="#L"/><use transform="matrix(0.0068359375,0,0,0.0068359375,13.9794921875,0)" xlink:href="#X"/><use transform="matrix(0.0068359375,0,0,0.0068359375,22.3740234375,0)" xlink:href="#W"/><use transform="matrix(0.0068359375,0,0,0.0068359375,30.3720703125,0)" xlink:href="#J"/><use transform="matrix(0.0068359375,0,0,0.0068359375,38.5341796875,0)" xlink:href="#O"/><use transform="matrix(0.0068359375,0,0,0.0068359375,45.923828125,0)" xlink:href="#O"/></g><g id="A"><use transform="matrix(0.0068359375,0,0,0.0068359375,0,0)" xlink:href="#aa"/><use transform="matrix(0.0068359375,0,0,0.0068359375,10.103515625,0)" xlink:href="#M"/><use transform="matrix(0.0068359375,0,0,0.0068359375,17.96484375,0)" xlink:href="#G"/><use transform="matrix(0.0068359375,0,0,0.0068359375,22.61328125,0)" xlink:href="#M"/></g><path d="M692-1560L212 224H46l480-1784h166" id="aw"/><path d="M784 20c-382 0-662-292-662-764 0-473 280-766 662-766s660 293 660 766c0 472-278 764-660 764zm0-176c266 0 475-207 475-588 0-383-209-590-475-590-268 0-477 208-477 590 0 380 209 588 477 588" id="ax"/><g id="B"><use transform="matrix(0.0068359375,0,0,0.0068359375,0,0)" xlink:href="#af"/><use transform="matrix(0.0068359375,0,0,0.0068359375,3.759765625,0)" xlink:href="#N"/><use transform="matrix(0.0068359375,0,0,0.0068359375,12.03125,0)" xlink:href="#I"/><use transform="matrix(0.0068359375,0,0,0.0068359375,20.603515625,0)" xlink:href="#E"/><use transform="matrix(0.0068359375,0,0,0.0068359375,28.8818359375,0)" xlink:href="#G"/><use transform="matrix(0.0068359375,0,0,0.0068359375,33.4619140625,0)" xlink:href="#aw"/><use transform="matrix(0.0068359375,0,0,0.0068359375,38.5068359375,0)" xlink:href="#ax"/><use transform="matrix(0.0068359375,0,0,0.0068359375,49.2119140625,0)" xlink:href="#E"/><use transform="matrix(0.0068359375,0,0,0.0068359375,57.490234375,0)" xlink:href="#G"/><use transform="matrix(0.0068359375,0,0,0.0068359375,62.0703125,0)" xlink:href="#I"/><use transform="matrix(0.0068359375,0,0,0.0068359375,70.642578125,0)" xlink:href="#E"/><use transform="matrix(0.0068359375,0,0,0.0068359375,78.9208984375,0)" xlink:href="#G"/></g><path d="M657 26c-323 0-524-166-541-416h195c15 169 171 246 346 246 202 0 356-106 356-265 5-203-294-238-475-293-239-73-380-191-380-389 0-252 224-419 512-419 294 0 499 171 508 396H992c-17-145-151-228-328-228-193 0-321 102-321 242 0 156 175 211 284 241l149 41c160 44 422 134 422 412 0 244-197 432-541 432" id="ay"/><g id="C"><use transform="matrix(0.010091145833333334,0,0,0.010091145833333334,0,0)" xlink:href="#ay"/><use transform="matrix(0.010091145833333334,0,0,0.010091145833333334,13.259765625,0)" xlink:href="#R"/><use transform="matrix(0.010091145833333334,0,0,0.010091145833333334,25.480143229166668,0)" xlink:href="#M"/><use transform="matrix(0.010091145833333334,0,0,0.010091145833333334,37.0849609375,0)" xlink:href="#P"/></g></defs></g></svg>