<svg xmlns="http://www.w3.org/2000/svg" xmlns:xlink="http://www.w3.org/1999/xlink" xmlns:lucid="lucid" width="636.48" height="1582"><g transform="translate(841 -579)" lucid:page-tab-id="0_0"><path d="M-1000 500H0v2000h-1000z" fill="#fff"/><path d="M-840 1312a12 12 0 0 1 12-12h245.97a12 12 0 0 1 12 12v186.76a12 12 0 0 1-12 12H-828a12 12 0 0 1-12-12z" stroke="#dfe3e8" stroke-width="2" fill="#fff"/><path d="M-792.92 1400.2v-.16a17.65 17.65 0 0 1 17.65-17.66 17.65 17.65 0 0 1 17.65 17.66 17.65 17.65 0 0 1-17.65 17.65 17.65 17.65 0 0 1-17.65-17.66v-.18" stroke="#000" stroke-opacity=".25" fill="#6db1ff"/><path d="M-792.92 1447.3v-.2a17.65 17.65 0 0 1 17.65-17.64 17.65 17.65 0 0 1 17.65 17.65 17.65 17.65 0 0 1-17.65 17.67 17.65 17.65 0 0 1-17.65-17.66v-.16" stroke="#000" stroke-opacity=".25" fill="#ff80df"/><use xlink:href="#a" transform="matrix(1,0,0,1,-792.9238790535693,1335.3070907098231) translate(0 24.5478515625)"/><use xlink:href="#b" transform="matrix(1,0,0,1,-792.9238790535693,1335.3070907098231) translate(77.923828125 24.5478515625)"/><use xlink:href="#c" transform="matrix(1,0,0,1,-739.9632429888347,1382.3832116562537) translate(0 23.0927734375)"/><use xlink:href="#d" transform="matrix(1,0,0,1,-739.9632429888347,1429.4593326026845) translate(0 23.0927734375)"/><use xlink:href="#e" transform="matrix(1,0,0,1,-739.9632429888347,1429.4593326026845) translate(34.412109375 23.0927734375)"/><path d="M-378.88 585.8a7.8 7.8 0 0 1 7.55-5.8h160.8a4.6 4.6 0 0 1 4.46 5.8l-39.57 148.4a7.8 7.8 0 0 1-7.55 5.8H-414a4.6 4.6 0 0 1-4.45-5.8z" stroke="#000" stroke-width="2" fill="#ff80df"/><use xlink:href="#f" transform="matrix(1,0,0,1,-408,592) translate(62.45486979166667 62.520833333333336)"/><use xlink:href="#g" transform="matrix(1,0,0,1,-408,592) translate(37.64953125 87.52669270833334)"/><path d="M-329.76 741.5V779a1 1 0 0 0 1 1 1 1 0 0 1 1.02 1v21.62" stroke="#3a414a" fill="none"/><path d="M-329.28 741.5h-.95v-.5h.95z" stroke="#3a414a" stroke-width=".05" fill="#3a414a"/><path d="M-327.74 817.38l-4.63-14.26h9.27z" stroke="#3a414a" fill="#3a414a"/><path d="M-435.48 826a6 6 0 0 1 6-6H-226a6 6 0 0 1 6 6v161.43a6 6 0 0 1-6 6h-203.48a6 6 0 0 1-6-6z" stroke="#000" stroke-width="2" fill="#6db1ff"/><use xlink:href="#h" transform="matrix(1,0,0,1,-423.47863159311055,832) translate(9.367513020833329 57.520833333333336)"/><use xlink:href="#i" transform="matrix(1,0,0,1,-423.47863159311055,832) translate(63.718424479166664 57.520833333333336)"/><use xlink:href="#j" transform="matrix(1,0,0,1,-423.47863159311055,832) translate(106.00032552083333 57.520833333333336)"/><use xlink:href="#k" transform="matrix(1,0,0,1,-423.47863159311055,832) translate(21.098470052083343 82.52669270833334)"/><use xlink:href="#l" transform="matrix(1,0,0,1,-423.47863159311055,832) translate(125.91520182291667 82.52669270833334)"/><use xlink:href="#m" transform="matrix(1,0,0,1,-423.47863159311055,832) translate(51.17513020833333 107.53255208333334)"/><path d="M-327.74 994.93v54.25" stroke="#3a414a" fill="none"/><path d="M-327.26 994.94h-.95v-.5h.94z" stroke="#3a414a" stroke-width=".05" fill="#3a414a"/><path d="M-327.74 1063.95l-4.63-14.27h9.27z" stroke="#3a414a" fill="#3a414a"/><path d="M-435.48 1072.57a6 6 0 0 1 6-6H-226a6 6 0 0 1 6 6v148a6 6 0 0 1-6 6h-203.48a6 6 0 0 1-6-6z" stroke="#000" stroke-width="2" fill="#6db1ff"/><use xlink:href="#n" transform="matrix(1,0,0,1,-423.47863159311055,1078.569147839544) translate(40.845920138888886 42.77777777777778)"/><use xlink:href="#o" transform="matrix(1,0,0,1,-423.47863159311055,1078.569147839544) translate(29.65885416666667 75.04340277777777)"/><use xlink:href="#p" transform="matrix(1,0,0,1,-423.47863159311055,1078.569147839544) translate(13.708333333333343 107.30902777777777)"/><use xlink:href="#q" transform="matrix(1,0,0,1,-423.47863159311055,1078.569147839544) translate(108.67361111111111 107.30902777777777)"/><path d="M-327.74 1228.07v76.47" stroke="#3a414a" fill="none"/><path d="M-327.26 1228.08h-.95v-.5h.94z" stroke="#3a414a" stroke-width=".05" fill="#3a414a"/><path d="M-327.74 1319.3l-4.63-14.26h9.27z" stroke="#3a414a" fill="#3a414a"/><path d="M-435.48 1327.92a6 6 0 0 1 6-6H-226a6 6 0 0 1 6 6v148a6 6 0 0 1-6 6h-203.48a6 6 0 0 1-6-6z" stroke="#000" stroke-width="2" fill="#6db1ff"/><use xlink:href="#r" transform="matrix(1,0,0,1,-423.47863159311055,1333.9212239583335) translate(35.90342881944444 59.77777777777778)"/><use xlink:href="#s" transform="matrix(1,0,0,1,-423.47863159311055,1333.9212239583335) translate(118.83528645833333 59.77777777777778)"/><use xlink:href="#t" transform="matrix(1,0,0,1,-423.47863159311055,1333.9212239583335) translate(47.323784722222236 92.04340277777777)"/><path d="M-327.74 1483.42v59.2" stroke="#3a414a" fill="none"/><path d="M-327.26 1483.43h-.95v-.5h.94z" stroke="#3a414a" stroke-width=".05" fill="#3a414a"/><path d="M-327.74 1557.38l-4.63-14.26h9.27z" stroke="#3a414a" fill="#3a414a"/><path d="M-399.7 1565.8a7.8 7.8 0 0 1 7.56-5.8H-226a4.6 4.6 0 0 1 4.45 5.8l-34.24 128.4a7.8 7.8 0 0 1-7.53 5.8h-166.15a4.6 4.6 0 0 1-4.45-5.8z" stroke="#000" stroke-width="2" fill="#ff80df"/><g><use xlink:href="#u" transform="matrix(1,0,0,1,-430.47863159311055,1565) translate(38.23633680555557 74.34027777777777)"/><use xlink:href="#v" transform="matrix(1,0,0,1,-430.47863159311055,1565) translate(81.74762152777778 74.34027777777777)"/></g><path d="M-327.74 1701.5v59.2" stroke="#3a414a" fill="none"/><path d="M-327.26 1701.5h-.95v-.5h.94z" stroke="#3a414a" stroke-width=".05" fill="#3a414a"/><path d="M-327.74 1775.46l-4.63-14.27h9.27z" stroke="#3a414a" fill="#3a414a"/><path d="M-420 1784.08a6 6 0 0 1 6-6h172.52a6 6 0 0 1 6 6v151.84a6 6 0 0 1-6 6H-414a6 6 0 0 1-6-6z" stroke="#000" stroke-width="2" fill="#6db1ff"/><g><use xlink:href="#w" transform="matrix(1,0,0,1,-408,1790.0787760416665) translate(0.5792100694444429 47.77777777777778)"/><use xlink:href="#x" transform="matrix(1,0,0,1,-408,1790.0787760416665) translate(11.082682291666686 80.04340277777777)"/><use xlink:href="#y" transform="matrix(1,0,0,1,-408,1790.0787760416665) translate(110.70290798611111 80.04340277777777)"/><use xlink:href="#z" transform="matrix(1,0,0,1,-408,1790.0787760416665) translate(2.261067708333343 112.30902777777777)"/><use xlink:href="#A" transform="matrix(1,0,0,1,-408,1790.0787760416665) translate(82.07877604166667 112.30902777777777)"/></g><path d="M-384.2 2025.8a7.8 7.8 0 0 1 7.53-5.8h135.2a4.6 4.6 0 0 1 4.44 5.8l-34.24 128.4a7.8 7.8 0 0 1-7.54 5.8H-414a4.6 4.6 0 0 1-4.45-5.8z" stroke="#000" stroke-width="2" fill="#ff80df"/><g><use xlink:href="#B" transform="matrix(1,0,0,1,-415,2025) translate(23.58421006944445 58.09027777777778)"/><use xlink:href="#s" transform="matrix(1,0,0,1,-415,2025) translate(121.16450520833334 58.09027777777778)"/><use xlink:href="#C" transform="matrix(1,0,0,1,-415,2025) translate(24.020625000000003 90.35590277777777)"/></g><path d="M-327.74 1943.42v59.2" stroke="#3a414a" fill="none"/><path d="M-327.26 1943.43h-.95v-.5h.94z" stroke="#3a414a" stroke-width=".05" fill="#3a414a"/><path d="M-327.74 2017.38l-4.63-14.26h9.27z" stroke="#3a414a" fill="#3a414a"/><defs><path d="M659 0H135v-1490h529c448 0 721 280 721 744 0 466-273 746-726 746zM440-263h204c287 0 437-148 437-483 0-333-150-481-435-481H440v964" id="D"/><path d="M128 0v-1118h300V0H128zm150-1264c-91 0-165-68-165-154 0-85 74-154 165-154 90 0 165 69 165 154 0 86-75 154-165 154" id="E"/><path d="M440 22C227 22 68-92 68-313c0-250 202-322 422-343 195-21 271-24 271-105 0-95-63-149-175-149-116 0-187 57-211 129l-275-46c57-194 237-305 487-305 240 0 474 108 474 379V0H777v-155h-10C713-51 605 22 440 22zm85-211c140 0 238-93 238-211v-121c-37 26-156 42-222 51-111 16-185 59-185 149 0 87 70 132 169 132" id="F"/><path d="M625 442c-280 0-454-114-503-274l258-72c28 63 97 128 243 128 153 0 246-69 246-216v-206h-23C805-108 717-16 536-16 284-16 81-191 81-561c0-378 208-571 456-571 188 0 280 113 321 202h13v-188h295V-9c0 303-226 451-541 451zm5-686c153 0 240-119 240-319 0-198-86-329-240-329-158 0-241 137-241 329 0 195 85 319 241 319" id="G"/><path d="M128 0v-1118h290v195h12c54-169 184-238 367-200v268c-27-8-86-15-130-15-138 0-239 95-239 234V0H128" id="H"/><path d="M128 0v-1118h278l12 217c60-163 185-234 319-234 143 0 236 81 288 251 63-172 205-251 359-251 205 0 357 138 357 381V0h-301v-697c0-126-76-187-177-187-114 0-184 79-184 196V0H789v-705c0-109-72-179-174-179-106 0-187 74-187 208V0H128" id="I"/><g id="a"><use transform="matrix(0.0087890625,0,0,0.0087890625,0,0)" xlink:href="#D"/><use transform="matrix(0.0087890625,0,0,0.0087890625,12.9990234375,0)" xlink:href="#E"/><use transform="matrix(0.0087890625,0,0,0.0087890625,17.876953125,0)" xlink:href="#F"/><use transform="matrix(0.0087890625,0,0,0.0087890625,28.3271484375,0)" xlink:href="#G"/><use transform="matrix(0.0087890625,0,0,0.0087890625,39.7001953125,0)" xlink:href="#H"/><use transform="matrix(0.0087890625,0,0,0.0087890625,46.7841796875,0)" xlink:href="#F"/><use transform="matrix(0.0087890625,0,0,0.0087890625,57.234375,0)" xlink:href="#I"/></g><path d="M128 0v-1490h300v802h17l366-430h347L740-633 1179 0H826L514-456l-86 97V0H128" id="J"/><path d="M633 22C291 22 81-200 81-553c0-345 210-579 537-579 292 0 525 185 525 567v84H378c7 183 109 277 260 277 105 0 184-46 216-132l272 51C1071-99 893 22 633 22zM380-669h474c-15-146-94-237-233-237-143 0-229 99-241 237" id="K"/><path d="M120 396l69-226c123 42 245 23 254-107l8-60L31-1118h319c87 288 199 559 259 872 72-308 185-583 277-872h315L726 132c-68 181-186 294-410 294-79 0-153-13-196-30" id="L"/><g id="b"><use transform="matrix(0.0087890625,0,0,0.0087890625,0,0)" xlink:href="#J"/><use transform="matrix(0.0087890625,0,0,0.0087890625,10.037109375,0)" xlink:href="#K"/><use transform="matrix(0.0087890625,0,0,0.0087890625,20.4345703125,0)" xlink:href="#L"/></g><path d="M180 0v-1490h510c348 0 508 209 508 474 0 266-160 477-507 477H370V0H180zm190-706h312c236 0 327-133 327-310 0-176-91-307-329-307H370v617" id="M"/><path d="M158 0v-1118h174v172h12c41-113 157-188 290-188 26 0 70 2 91 3v181c-11-2-60-10-108-10-161 0-279 109-279 260V0H158" id="N"/><path d="M613 24c-304 0-509-231-509-576 0-350 205-580 509-580 305 0 511 230 511 580 0 345-206 576-511 576zm0-161c226 0 329-195 329-415 0-222-103-419-329-419-223 0-326 196-326 419 0 220 103 415 326 415" id="O"/><path d="M613 24c-304 0-509-231-509-576 0-350 205-580 509-580 216 0 392 114 453 309l-173 49c-33-115-133-197-280-197-223 0-326 196-326 419 0 220 103 415 326 415 150 0 252-85 285-206l172 49C1010-95 832 24 613 24" id="P"/><path d="M628 24c-324 0-524-230-524-574 0-343 198-582 503-582 237 0 487 146 487 559v75H286c9 234 145 362 343 362 132 0 231-58 273-172l174 48C1024-91 857 24 628 24zM287-650h624c-17-190-120-322-304-322-192 0-309 151-320 322" id="Q"/><path d="M538 24C308 24 148-78 108-271l171-41c32 123 123 178 257 178 156 0 256-77 256-169 0-77-54-128-164-154l-186-44c-203-48-300-148-300-305 0-192 176-326 414-326 230 0 351 112 402 269l-163 42c-31-80-94-158-238-158-133 0-233 69-233 162 0 83 57 129 188 160l169 40c203 48 298 149 298 302 0 196-179 339-441 339" id="R"/><g id="c"><use transform="matrix(0.0068359375,0,0,0.0068359375,0,0)" xlink:href="#M"/><use transform="matrix(0.0068359375,0,0,0.0068359375,8.94140625,0)" xlink:href="#N"/><use transform="matrix(0.0068359375,0,0,0.0068359375,13.9794921875,0)" xlink:href="#O"/><use transform="matrix(0.0068359375,0,0,0.0068359375,22.3740234375,0)" xlink:href="#P"/><use transform="matrix(0.0068359375,0,0,0.0068359375,30.3720703125,0)" xlink:href="#Q"/><use transform="matrix(0.0068359375,0,0,0.0068359375,38.5341796875,0)" xlink:href="#R"/><use transform="matrix(0.0068359375,0,0,0.0068359375,45.923828125,0)" xlink:href="#R"/></g><path d="M645 0H180v-1490h484c435 0 692 280 692 742 0 466-257 748-711 748zM370-168h263c363 0 539-218 539-580 0-358-176-574-521-574H370v1154" id="S"/><path d="M471 26C259 26 90-98 90-318c0-256 228-303 435-329 202-27 287-16 287-108 0-139-79-219-234-219-161 0-248 86-283 164l-173-57c86-203 278-265 451-265 150 0 419 46 419 395V0H815v-152h-12C765-73 660 26 471 26zm31-159c199 0 310-134 310-271v-155c-30 35-226 55-295 64-131 17-246 59-246 186 0 116 97 176 231 176" id="T"/><path d="M598-1118v154H368v674c0 100 37 144 132 144 23 0 62-6 92-12L629-6c-37 13-88 20-134 20-193 0-307-107-307-290v-688H20v-154h168v-266h180v266h230" id="U"/><g id="d"><use transform="matrix(0.0068359375,0,0,0.0068359375,0,0)" xlink:href="#S"/><use transform="matrix(0.0068359375,0,0,0.0068359375,10.103515625,0)" xlink:href="#T"/><use transform="matrix(0.0068359375,0,0,0.0068359375,17.96484375,0)" xlink:href="#U"/><use transform="matrix(0.0068359375,0,0,0.0068359375,22.61328125,0)" xlink:href="#T"/></g><path d="M370-1490V0H180v-1490h190" id="V"/><path d="M338-670V0H158v-1118h173l1 207c72-158 192-221 342-221 226 0 378 139 378 422V0H872v-695c0-172-96-275-252-275-161 0-282 109-282 300" id="W"/><path d="M158 418v-1536h174v179h20c37-59 106-193 324-193 279 0 474 222 474 576 0 356-194 580-473 580-213 0-288-135-325-197h-14v591H158zm492-555c209 0 317-186 317-421 0-232-105-413-317-413-206 0-314 166-314 413 0 249 111 421 314 421" id="X"/><path d="M537 14c-226 0-379-139-379-422v-710h180v695c0 172 97 275 253 275 160 0 281-109 281-300v-670h181V0H879v-209C806-46 684 14 537 14" id="Y"/><path d="M692-1560L212 224H46l480-1784h166" id="Z"/><path d="M784 20c-382 0-662-292-662-764 0-473 280-766 662-766s660 293 660 766c0 472-278 764-660 764zm0-176c266 0 475-207 475-588 0-383-209-590-475-590-268 0-477 208-477 590 0 380 209 588 477 588" id="aa"/><g id="e"><use transform="matrix(0.0068359375,0,0,0.0068359375,0,0)" xlink:href="#V"/><use transform="matrix(0.0068359375,0,0,0.0068359375,3.759765625,0)" xlink:href="#W"/><use transform="matrix(0.0068359375,0,0,0.0068359375,12.03125,0)" xlink:href="#X"/><use transform="matrix(0.0068359375,0,0,0.0068359375,20.603515625,0)" xlink:href="#Y"/><use transform="matrix(0.0068359375,0,0,0.0068359375,28.8818359375,0)" xlink:href="#U"/><use transform="matrix(0.0068359375,0,0,0.0068359375,33.4619140625,0)" xlink:href="#Z"/><use transform="matrix(0.0068359375,0,0,0.0068359375,38.5068359375,0)" xlink:href="#aa"/><use transform="matrix(0.0068359375,0,0,0.0068359375,49.2119140625,0)" xlink:href="#Y"/><use transform="matrix(0.0068359375,0,0,0.0068359375,57.490234375,0)" xlink:href="#U"/><use transform="matrix(0.0068359375,0,0,0.0068359375,62.0703125,0)" xlink:href="#X"/><use transform="matrix(0.0068359375,0,0,0.0068359375,70.642578125,0)" xlink:href="#Y"/><use transform="matrix(0.0068359375,0,0,0.0068359375,78.9208984375,0)" xlink:href="#U"/></g><path d="M57 0l534-763-501-727h220c122 187 296 416 391 605 94-191 272-419 396-605h215L811-770 1340 0h-219C986-204 811-426 699-640 588-430 407-202 273 0H57" id="ab"/><path d="M158 0v-1118h180V0H158zm91-1301c-68 0-125-53-125-119s57-119 125-119c69 0 126 53 126 119s-57 119-126 119" id="ac"/><path d="M158 0v-1118h175l1 205c55-151 181-225 313-225 147 0 245 90 285 228 53-141 190-228 352-228 194 0 352 125 352 384V0h-181v-749c0-161-105-225-225-225-151 0-243 103-243 244V0H807v-767c0-124-93-207-219-207-131 0-250 92-250 270V0H158" id="ad"/><g id="f"><use transform="matrix(0.010091145833333334,0,0,0.010091145833333334,0,0)" xlink:href="#ab"/><use transform="matrix(0.010091145833333334,0,0,0.010091145833333334,13.512044270833334,0)" xlink:href="#Q"/><use transform="matrix(0.010091145833333334,0,0,0.010091145833333334,25.560872395833336,0)" xlink:href="#W"/><use transform="matrix(0.010091145833333334,0,0,0.010091145833333334,37.77115885416667,0)" xlink:href="#ac"/><use transform="matrix(0.010091145833333334,0,0,0.010091145833333334,42.776367187500014,0)" xlink:href="#Y"/><use transform="matrix(0.010091145833333334,0,0,0.010091145833333334,54.99674479166667,0)" xlink:href="#ad"/></g><path d="M98-1322v-168h1126v168H757V0H567v-1322H98" id="ae"/><g id="g"><use transform="matrix(0.010091145833333334,0,0,0.010091145833333334,0,0)" xlink:href="#ae"/><use transform="matrix(0.010091145833333334,0,0,0.010091145833333334,12.169921875,0)" xlink:href="#N"/><use transform="matrix(0.010091145833333334,0,0,0.010091145833333334,19.950195312500004,0)" xlink:href="#T"/><use transform="matrix(0.010091145833333334,0,0,0.010091145833333334,31.555013020833336,0)" xlink:href="#W"/><use transform="matrix(0.010091145833333334,0,0,0.010091145833333334,43.76529947916667,0)" xlink:href="#R"/><use transform="matrix(0.010091145833333334,0,0,0.010091145833333334,54.673828125,0)" xlink:href="#P"/><use transform="matrix(0.010091145833333334,0,0,0.010091145833333334,66.48046875,0)" xlink:href="#N"/><use transform="matrix(0.010091145833333334,0,0,0.010091145833333334,74.58365885416667,0)" xlink:href="#ac"/><use transform="matrix(0.010091145833333334,0,0,0.010091145833333334,79.5888671875,0)" xlink:href="#X"/><use transform="matrix(0.010091145833333334,0,0,0.010091145833333334,92.2431640625,0)" xlink:href="#U"/><use transform="matrix(0.010091145833333334,0,0,0.010091145833333334,98.80240885416666,0)" xlink:href="#R"/></g><path d="M180 0v-1490h190v1322h690V0H180" id="af"/><path d="M577 24c-279 0-473-224-473-580 0-354 195-576 474-576 218 0 287 134 324 193h14v-551h180V0H922v-173h-20C865-111 790 24 577 24zm27-161c203 0 314-172 314-421 0-247-108-413-314-413-212 0-317 181-317 413 0 235 108 421 317 421" id="ag"/><g id="h"><use transform="matrix(0.010091145833333334,0,0,0.010091145833333334,0,0)" xlink:href="#af"/><use transform="matrix(0.010091145833333334,0,0,0.010091145833333334,11.685546875,0)" xlink:href="#O"/><use transform="matrix(0.010091145833333334,0,0,0.010091145833333334,24.279296875,0)" xlink:href="#T"/><use transform="matrix(0.010091145833333334,0,0,0.010091145833333334,35.884114583333336,0)" xlink:href="#ag"/></g><g id="i"><use transform="matrix(0.010091145833333334,0,0,0.010091145833333334,0,0)" xlink:href="#T"/><use transform="matrix(0.010091145833333334,0,0,0.010091145833333334,11.604817708333334,0)" xlink:href="#W"/><use transform="matrix(0.010091145833333334,0,0,0.010091145833333334,23.815104166666668,0)" xlink:href="#ag"/></g><g id="j"><use transform="matrix(0.010091145833333334,0,0,0.010091145833333334,0,0)" xlink:href="#M"/><use transform="matrix(0.010091145833333334,0,0,0.010091145833333334,13.19921875,0)" xlink:href="#N"/><use transform="matrix(0.010091145833333334,0,0,0.010091145833333334,20.636393229166668,0)" xlink:href="#Q"/><use transform="matrix(0.010091145833333334,0,0,0.010091145833333334,32.68522135416667,0)" xlink:href="#X"/><use transform="matrix(0.010091145833333334,0,0,0.010091145833333334,45.541341145833336,0)" xlink:href="#T"/><use transform="matrix(0.010091145833333334,0,0,0.010091145833333334,57.14615885416667,0)" xlink:href="#N"/><use transform="matrix(0.010091145833333334,0,0,0.010091145833333334,64.58333333333334,0)" xlink:href="#Q"/></g><g id="k"><use transform="matrix(0.010091145833333334,0,0,0.010091145833333334,0,0)" xlink:href="#ae"/><use transform="matrix(0.010091145833333334,0,0,0.010091145833333334,12.169921875,0)" xlink:href="#N"/><use transform="matrix(0.010091145833333334,0,0,0.010091145833333334,19.950195312500004,0)" xlink:href="#T"/><use transform="matrix(0.010091145833333334,0,0,0.010091145833333334,31.555013020833336,0)" xlink:href="#W"/><use transform="matrix(0.010091145833333334,0,0,0.010091145833333334,43.76529947916667,0)" xlink:href="#R"/><use transform="matrix(0.010091145833333334,0,0,0.010091145833333334,54.673828125,0)" xlink:href="#P"/><use transform="matrix(0.010091145833333334,0,0,0.010091145833333334,66.48046875,0)" xlink:href="#N"/><use transform="matrix(0.010091145833333334,0,0,0.010091145833333334,74.58365885416667,0)" xlink:href="#ac"/><use transform="matrix(0.010091145833333334,0,0,0.010091145833333334,79.5888671875,0)" xlink:href="#X"/><use transform="matrix(0.010091145833333334,0,0,0.010091145833333334,92.2431640625,0)" xlink:href="#U"/></g><g id="l"><use transform="matrix(0.010091145833333334,0,0,0.010091145833333334,0,0)" xlink:href="#S"/><use transform="matrix(0.010091145833333334,0,0,0.010091145833333334,14.914713541666668,0)" xlink:href="#T"/><use transform="matrix(0.010091145833333334,0,0,0.010091145833333334,26.51953125,0)" xlink:href="#U"/><use transform="matrix(0.010091145833333334,0,0,0.010091145833333334,33.381510416666664,0)" xlink:href="#T"/></g><path d="M218-607c0-325 108-727 258-974h175c-155 315-250 682-250 974 0 265 78 531 250 886H476C306-10 218-315 218-607" id="ah"/><path d="M545 20c-263 0-445-160-445-446v-80h190v80c0 182 102 279 255 279 152 0 254-97 254-279v-1064h190v1064c0 286-181 446-444 446" id="ai"/><path d="M140 405l46-156c120 36 205 19 263-150l32-93L54-1118h197c107 313 237 620 324 950 87-331 219-637 326-950h196L606 167c-68 178-176 259-334 259-64 0-113-12-132-21" id="aj"/><path d="M96 279C273-86 346-350 346-607c0-292-95-659-250-974h175c150 246 258 650 258 974 0 297-91 602-258 886H96" id="ak"/><g id="m"><use transform="matrix(0.010091145833333334,0,0,0.010091145833333334,0,0)" xlink:href="#ah"/><use transform="matrix(0.010091145833333334,0,0,0.010091145833333334,7.5380859375,0)" xlink:href="#ai"/><use transform="matrix(0.010091145833333334,0,0,0.010091145833333334,19.334635416666668,0)" xlink:href="#Y"/><use transform="matrix(0.010091145833333334,0,0,0.010091145833333334,31.555013020833336,0)" xlink:href="#X"/><use transform="matrix(0.010091145833333334,0,0,0.010091145833333334,43.8056640625,0)" xlink:href="#aj"/><use transform="matrix(0.010091145833333334,0,0,0.010091145833333334,55.72330729166667,0)" xlink:href="#U"/><use transform="matrix(0.010091145833333334,0,0,0.010091145833333334,62.28255208333334,0)" xlink:href="#Q"/><use transform="matrix(0.010091145833333334,0,0,0.010091145833333334,74.33138020833334,0)" xlink:href="#N"/><use transform="matrix(0.010091145833333334,0,0,0.010091145833333334,82.11165364583334,0)" xlink:href="#ak"/></g><path d="M481 0L54-1118h197c107 314 236 620 325 951 87-331 217-637 324-951h197L670 0H481" id="al"/><g id="n"><use transform="matrix(0.010850694444444444,0,0,0.010850694444444444,0,0)" xlink:href="#V"/><use transform="matrix(0.010850694444444444,0,0,0.010850694444444444,5.967881944444445,0)" xlink:href="#W"/><use transform="matrix(0.010850694444444444,0,0,0.010850694444444444,19.09722222222222,0)" xlink:href="#U"/><use transform="matrix(0.010850694444444444,0,0,0.010850694444444444,26.15017361111111,0)" xlink:href="#Q"/><use transform="matrix(0.010850694444444444,0,0,0.010850694444444444,39.10590277777778,0)" xlink:href="#N"/><use transform="matrix(0.010850694444444444,0,0,0.010850694444444444,47.47178819444444,0)" xlink:href="#T"/><use transform="matrix(0.010850694444444444,0,0,0.010850694444444444,59.95008680555555,0)" xlink:href="#P"/><use transform="matrix(0.010850694444444444,0,0,0.010850694444444444,72.64539930555556,0)" xlink:href="#U"/><use transform="matrix(0.010850694444444444,0,0,0.010850694444444444,79.91536458333333,0)" xlink:href="#ac"/><use transform="matrix(0.010850694444444444,0,0,0.010850694444444444,85.29730902777777,0)" xlink:href="#al"/><use transform="matrix(0.010850694444444444,0,0,0.010850694444444444,97.35243055555556,0)" xlink:href="#Q"/></g><path d="M600 0L52-1490h200c166 485 304 806 458 1336 156-533 285-846 449-1336h202L819 0H600" id="am"/><path d="M338-1490V0H158v-1490h180" id="an"/><path d="M126 0v-134l627-806v-11H146v-167h839v143L376-178v11h629V0H126" id="ao"/><g id="o"><use transform="matrix(0.010850694444444444,0,0,0.010850694444444444,0,0)" xlink:href="#am"/><use transform="matrix(0.010850694444444444,0,0,0.010850694444444444,15.33203125,0)" xlink:href="#ac"/><use transform="matrix(0.010850694444444444,0,0,0.010850694444444444,20.713975694444443,0)" xlink:href="#R"/><use transform="matrix(0.010850694444444444,0,0,0.010850694444444444,32.443576388888886,0)" xlink:href="#Y"/><use transform="matrix(0.010850694444444444,0,0,0.010850694444444444,45.58376736111111,0)" xlink:href="#T"/><use transform="matrix(0.010850694444444444,0,0,0.010850694444444444,58.06206597222221,0)" xlink:href="#an"/><use transform="matrix(0.010850694444444444,0,0,0.010850694444444444,63.44401041666666,0)" xlink:href="#ac"/><use transform="matrix(0.010850694444444444,0,0,0.010850694444444444,68.8259548611111,0)" xlink:href="#ao"/><use transform="matrix(0.010850694444444444,0,0,0.010850694444444444,81.09809027777777,0)" xlink:href="#T"/><use transform="matrix(0.010850694444444444,0,0,0.010850694444444444,93.57638888888889,0)" xlink:href="#U"/><use transform="matrix(0.010850694444444444,0,0,0.010850694444444444,100.84635416666666,0)" xlink:href="#ac"/><use transform="matrix(0.010850694444444444,0,0,0.010850694444444444,106.22829861111111,0)" xlink:href="#O"/><use transform="matrix(0.010850694444444444,0,0,0.010850694444444444,119.55295138888887,0)" xlink:href="#W"/></g><path d="M338-670V0H158v-1490h180v566c73-149 190-208 336-208 226 0 379 139 379 422V0H872v-695c0-172-96-275-252-275-161 0-282 109-282 300" id="ap"/><path d="M611 442c-248 0-391-105-460-228l146-94c47 65 117 165 314 165 178 0 307-82 307-266v-224h-17C863-141 792-18 576-18c-268 0-472-195-472-546 0-346 197-568 476-568 216 0 288 133 326 193h17v-179h175V29c0 289-215 413-487 413zm-5-620c203 0 314-146 314-390 0-237-108-403-314-403-213 0-319 180-319 403 0 230 109 390 319 390" id="aq"/><g id="p"><use transform="matrix(0.010850694444444444,0,0,0.010850694444444444,0,0)" xlink:href="#ae"/><use transform="matrix(0.010850694444444444,0,0,0.010850694444444444,14.344618055555555,0)" xlink:href="#ap"/><use transform="matrix(0.010850694444444444,0,0,0.010850694444444444,27.48480902777778,0)" xlink:href="#N"/><use transform="matrix(0.010850694444444444,0,0,0.010850694444444444,35.481770833333336,0)" xlink:href="#O"/><use transform="matrix(0.010850694444444444,0,0,0.010850694444444444,48.80642361111111,0)" xlink:href="#Y"/><use transform="matrix(0.010850694444444444,0,0,0.010850694444444444,61.94661458333333,0)" xlink:href="#aq"/><use transform="matrix(0.010850694444444444,0,0,0.010850694444444444,75.57508680555556,0)" xlink:href="#ap"/></g><path d="M180 0v-1490h224l606 953c40 63 108 177 176 312-27-437-7-821-13-1265h190V0h-226C860-448 622-778 356-1262c27 476 11 792 15 1262H180" id="ar"/><g id="q"><use transform="matrix(0.010850694444444444,0,0,0.010850694444444444,0,0)" xlink:href="#ar"/><use transform="matrix(0.010850694444444444,0,0,0.010850694444444444,16.74262152777778,0)" xlink:href="#T"/><use transform="matrix(0.010850694444444444,0,0,0.010850694444444444,29.22092013888889,0)" xlink:href="#X"/><use transform="matrix(0.010850694444444444,0,0,0.010850694444444444,43.044704861111114,0)" xlink:href="#T"/><use transform="matrix(0.010850694444444444,0,0,0.010850694444444444,55.52300347222223,0)" xlink:href="#N"/><use transform="matrix(0.010850694444444444,0,0,0.010850694444444444,64.23611111111111,0)" xlink:href="#ac"/></g><path d="M180 0v-1490h270l367 940c28 72 75 218 110 339 35-117 81-264 110-339l362-940h271V0h-187c2-448-5-837 7-1287-157 497-311 829-483 1287H842C666-458 514-784 354-1284c12 438 5 843 7 1284H180" id="as"/><g id="r"><use transform="matrix(0.010850694444444444,0,0,0.010850694444444444,0,0)" xlink:href="#as"/><use transform="matrix(0.010850694444444444,0,0,0.010850694444444444,20.07378472222222,0)" xlink:href="#T"/><use transform="matrix(0.010850694444444444,0,0,0.010850694444444444,32.55208333333333,0)" xlink:href="#W"/><use transform="matrix(0.010850694444444444,0,0,0.010850694444444444,45.68142361111111,0)" xlink:href="#Y"/><use transform="matrix(0.010850694444444444,0,0,0.010850694444444444,58.82161458333333,0)" xlink:href="#T"/><use transform="matrix(0.010850694444444444,0,0,0.010850694444444444,71.29991319444444,0)" xlink:href="#an"/></g><path d="M180 0v-1490h510c348 0 508 194 508 460 0 198-88 351-276 417L1256 0h-220L726-579c-117 2-238 0-356 1V0H180zm190-747h312c235 0 327-108 327-283 0-177-92-293-329-293H370v576" id="at"/><g id="s"><use transform="matrix(0.010850694444444444,0,0,0.010850694444444444,0,0)" xlink:href="#at"/><use transform="matrix(0.010850694444444444,0,0,0.010850694444444444,14.301215277777777,0)" xlink:href="#aa"/><use transform="matrix(0.010850694444444444,0,0,0.010850694444444444,31.293402777777775,0)" xlink:href="#V"/></g><path d="M657 26c-323 0-524-166-541-416h195c15 169 171 246 346 246 202 0 356-106 356-265 5-203-294-238-475-293-239-73-380-191-380-389 0-252 224-419 512-419 294 0 499 171 508 396H992c-17-145-151-228-328-228-193 0-321 102-321 242 0 156 175 211 284 241l149 41c160 44 422 134 422 412 0 244-197 432-541 432" id="au"/><g id="t"><use transform="matrix(0.010850694444444444,0,0,0.010850694444444444,0,0)" xlink:href="#au"/><use transform="matrix(0.010850694444444444,0,0,0.010850694444444444,14.2578125,0)" xlink:href="#Q"/><use transform="matrix(0.010850694444444444,0,0,0.010850694444444444,27.213541666666664,0)" xlink:href="#an"/><use transform="matrix(0.010850694444444444,0,0,0.010850694444444444,32.59548611111111,0)" xlink:href="#Q"/><use transform="matrix(0.010850694444444444,0,0,0.010850694444444444,45.55121527777778,0)" xlink:href="#P"/><use transform="matrix(0.010850694444444444,0,0,0.010850694444444444,58.24652777777778,0)" xlink:href="#U"/><use transform="matrix(0.010850694444444444,0,0,0.010850694444444444,65.51649305555554,0)" xlink:href="#ac"/><use transform="matrix(0.010850694444444444,0,0,0.010850694444444444,70.89843749999999,0)" xlink:href="#O"/><use transform="matrix(0.010850694444444444,0,0,0.010850694444444444,84.22309027777776,0)" xlink:href="#W"/></g><g id="u"><use transform="matrix(0.010850694444444444,0,0,0.010850694444444444,0,0)" xlink:href="#at"/><use transform="matrix(0.010850694444444444,0,0,0.010850694444444444,14.301215277777777,0)" xlink:href="#aa"/><use transform="matrix(0.010850694444444444,0,0,0.010850694444444444,31.293402777777775,0)" xlink:href="#V"/></g><g id="v"><use transform="matrix(0.010850694444444444,0,0,0.010850694444444444,0,0)" xlink:href="#M"/><use transform="matrix(0.010850694444444444,0,0,0.010850694444444444,14.073350694444445,0)" xlink:href="#O"/><use transform="matrix(0.010850694444444444,0,0,0.010850694444444444,27.39800347222222,0)" xlink:href="#an"/><use transform="matrix(0.010850694444444444,0,0,0.010850694444444444,32.88845486111111,0)" xlink:href="#aj"/><use transform="matrix(0.010850694444444444,0,0,0.010850694444444444,44.943576388888886,0)" xlink:href="#aq"/><use transform="matrix(0.010850694444444444,0,0,0.010850694444444444,58.57204861111111,0)" xlink:href="#O"/><use transform="matrix(0.010850694444444444,0,0,0.010850694444444444,71.89670138888889,0)" xlink:href="#W"/></g><path d="M798-719v166H144v-166h654" id="av"/><path d="M677 24c-213 0-288-135-325-197h-20V0H158v-1490h180v551h14c37-59 106-193 324-193 279 0 474 222 474 576 0 356-194 580-473 580zm-27-161c209 0 317-186 317-421 0-232-105-413-317-413-206 0-314 166-314 413 0 249 111 421 314 421" id="aw"/><g id="w"><use transform="matrix(0.010850694444444444,0,0,0.010850694444444444,0,0)" xlink:href="#M"/><use transform="matrix(0.010850694444444444,0,0,0.010850694444444444,14.073350694444445,0)" xlink:href="#O"/><use transform="matrix(0.010850694444444444,0,0,0.010850694444444444,27.39800347222222,0)" xlink:href="#an"/><use transform="matrix(0.010850694444444444,0,0,0.010850694444444444,32.88845486111111,0)" xlink:href="#aj"/><use transform="matrix(0.010850694444444444,0,0,0.010850694444444444,44.943576388888886,0)" xlink:href="#aq"/><use transform="matrix(0.010850694444444444,0,0,0.010850694444444444,58.57204861111111,0)" xlink:href="#O"/><use transform="matrix(0.010850694444444444,0,0,0.010850694444444444,71.89670138888889,0)" xlink:href="#W"/><use transform="matrix(0.010850694444444444,0,0,0.010850694444444444,85.02604166666666,0)" xlink:href="#av"/><use transform="matrix(0.010850694444444444,0,0,0.010850694444444444,95.24739583333333,0)" xlink:href="#aw"/><use transform="matrix(0.010850694444444444,0,0,0.010850694444444444,109.07118055555556,0)" xlink:href="#T"/><use transform="matrix(0.010850694444444444,0,0,0.010850694444444444,121.54947916666666,0)" xlink:href="#R"/><use transform="matrix(0.010850694444444444,0,0,0.010850694444444444,133.27907986111111,0)" xlink:href="#Q"/><use transform="matrix(0.010850694444444444,0,0,0.010850694444444444,146.23480902777777,0)" xlink:href="#ag"/></g><g id="x"><use transform="matrix(0.010850694444444444,0,0,0.010850694444444444,0,0)" xlink:href="#P"/><use transform="matrix(0.010850694444444444,0,0,0.010850694444444444,12.6953125,0)" xlink:href="#N"/><use transform="matrix(0.010850694444444444,0,0,0.010850694444444444,20.692274305555557,0)" xlink:href="#O"/><use transform="matrix(0.010850694444444444,0,0,0.010850694444444444,34.016927083333336,0)" xlink:href="#X"/><use transform="matrix(0.010850694444444444,0,0,0.010850694444444444,47.62369791666667,0)" xlink:href="#X"/><use transform="matrix(0.010850694444444444,0,0,0.010850694444444444,61.23046875,0)" xlink:href="#ac"/><use transform="matrix(0.010850694444444444,0,0,0.010850694444444444,66.61241319444444,0)" xlink:href="#W"/><use transform="matrix(0.010850694444444444,0,0,0.010850694444444444,79.74175347222221,0)" xlink:href="#aq"/></g><g id="y"><use transform="matrix(0.010850694444444444,0,0,0.010850694444444444,0,0)" xlink:href="#T"/><use transform="matrix(0.010850694444444444,0,0,0.010850694444444444,12.47829861111111,0)" xlink:href="#W"/><use transform="matrix(0.010850694444444444,0,0,0.010850694444444444,25.60763888888889,0)" xlink:href="#ag"/></g><path d="M784 20c-382 0-662-292-662-764 0-473 280-766 662-766s660 293 660 766c0 282-99 499-260 629l192 255h-198L1049-33C969 2 880 20 784 20zm-62-486h198l156 205c112-98 183-261 183-483 0-383-209-590-475-590-268 0-477 208-477 590 0 380 209 588 477 588 54 0 106-9 154-25" id="ax"/><g id="z"><use transform="matrix(0.010850694444444444,0,0,0.010850694444444444,0,0)" xlink:href="#ax"/><use transform="matrix(0.010850694444444444,0,0,0.010850694444444444,16.9921875,0)" xlink:href="#Y"/><use transform="matrix(0.010850694444444444,0,0,0.010850694444444444,30.13237847222222,0)" xlink:href="#T"/><use transform="matrix(0.010850694444444444,0,0,0.010850694444444444,42.61067708333333,0)" xlink:href="#an"/><use transform="matrix(0.010850694444444444,0,0,0.010850694444444444,47.99262152777778,0)" xlink:href="#ac"/><use transform="matrix(0.010850694444444444,0,0,0.010850694444444444,53.37456597222221,0)" xlink:href="#U"/><use transform="matrix(0.010850694444444444,0,0,0.010850694444444444,61.07855902777778,0)" xlink:href="#aj"/></g><path d="M783 20c-382 0-661-292-661-764 0-473 279-766 661-766 302 0 548 182 601 489h-190c-42-204-217-313-411-313-268 0-476 208-476 590 0 381 209 588 476 588 195 0 369-110 411-313h190c-52 303-296 489-601 489" id="ay"/><g id="A"><use transform="matrix(0.010850694444444444,0,0,0.010850694444444444,0,0)" xlink:href="#ay"/><use transform="matrix(0.010850694444444444,0,0,0.010850694444444444,16.23263888888889,0)" xlink:href="#O"/><use transform="matrix(0.010850694444444444,0,0,0.010850694444444444,29.557291666666664,0)" xlink:href="#W"/><use transform="matrix(0.010850694444444444,0,0,0.010850694444444444,42.68663194444444,0)" xlink:href="#U"/><use transform="matrix(0.010850694444444444,0,0,0.010850694444444444,49.95659722222222,0)" xlink:href="#N"/><use transform="matrix(0.010850694444444444,0,0,0.010850694444444444,57.95355902777778,0)" xlink:href="#O"/><use transform="matrix(0.010850694444444444,0,0,0.010850694444444444,71.27821180555554,0)" xlink:href="#an"/></g><g id="B"><use transform="matrix(0.010850694444444444,0,0,0.010850694444444444,0,0)" xlink:href="#ay"/><use transform="matrix(0.010850694444444444,0,0,0.010850694444444444,16.23263888888889,0)" xlink:href="#N"/><use transform="matrix(0.010850694444444444,0,0,0.010850694444444444,24.229600694444443,0)" xlink:href="#O"/><use transform="matrix(0.010850694444444444,0,0,0.010850694444444444,37.55425347222222,0)" xlink:href="#X"/><use transform="matrix(0.010850694444444444,0,0,0.010850694444444444,51.16102430555556,0)" xlink:href="#X"/><use transform="matrix(0.010850694444444444,0,0,0.010850694444444444,64.76779513888889,0)" xlink:href="#Q"/><use transform="matrix(0.010850694444444444,0,0,0.010850694444444444,77.72352430555556,0)" xlink:href="#ag"/></g><g id="C"><use transform="matrix(0.010850694444444444,0,0,0.010850694444444444,0,0)" xlink:href="#ae"/><use transform="matrix(0.010850694444444444,0,0,0.010850694444444444,13.0859375,0)" xlink:href="#N"/><use transform="matrix(0.010850694444444444,0,0,0.010850694444444444,21.451822916666664,0)" xlink:href="#T"/><use transform="matrix(0.010850694444444444,0,0,0.010850694444444444,33.93012152777777,0)" xlink:href="#W"/><use transform="matrix(0.010850694444444444,0,0,0.010850694444444444,47.05946180555556,0)" xlink:href="#R"/><use transform="matrix(0.010850694444444444,0,0,0.010850694444444444,58.789062499999986,0)" xlink:href="#P"/><use transform="matrix(0.010850694444444444,0,0,0.010850694444444444,71.484375,0)" xlink:href="#N"/><use transform="matrix(0.010850694444444444,0,0,0.010850694444444444,80.1974826388889,0)" xlink:href="#ac"/><use transform="matrix(0.010850694444444444,0,0,0.010850694444444444,85.57942708333334,0)" xlink:href="#X"/><use transform="matrix(0.010850694444444444,0,0,0.010850694444444444,99.18619791666666,0)" xlink:href="#U"/><use transform="matrix(0.010850694444444444,0,0,0.010850694444444444,106.23914930555556,0)" xlink:href="#R"/></g></defs></g></svg>